<svg id="Layer_1" data-name="Layer 1" xmlns="http://www.w3.org/2000/svg" xmlns:xlink="http://www.w3.org/1999/xlink" viewBox="0 0 1417.32 1417.32"><defs><style>.cls-1{fill:url(#linear-gradient);}.cls-2{fill:url(#linear-gradient-2);}.cls-3{fill:none;}</style><linearGradient id="linear-gradient" x1="708.66" y1="184.46" x2="708.66" y2="1232.86" gradientUnits="userSpaceOnUse"><stop offset="0" stop-color="#812990"/><stop offset="0.17" stop-color="#802f93"/><stop offset="0.39" stop-color="#7c3f9c"/><stop offset="0.65" stop-color="#775aab"/><stop offset="0.92" stop-color="#6f80c0"/><stop offset="1" stop-color="#6c8cc7"/></linearGradient><linearGradient id="linear-gradient-2" x1="708.66" y1="170.28" x2="708.66" y2="1247.03" xlink:href="#linear-gradient"/></defs><path class="cls-1" d="M815,1232.86H602.34a14.18,14.18,0,0,1,0-28.35H815a14.18,14.18,0,0,1,0,28.35ZM921.29,1162H496a14.17,14.17,0,1,1,0-28.34H921.29a14.17,14.17,0,1,1,0,28.34Zm0-70.86H496a14.18,14.18,0,1,1,0-28.35H921.29a14.18,14.18,0,1,1,0,28.35Zm0-70.87H496a14.17,14.17,0,1,1,0-28.34H921.29a14.17,14.17,0,1,1,0,28.34Zm0-70.86A14.17,14.17,0,0,1,914.2,923c126.75-73.34,205.49-209.76,205.49-356S1041,284.24,914.2,210.91a14.17,14.17,0,0,1,14.19-24.54,439.44,439.44,0,0,1,0,761.12A14.11,14.11,0,0,1,921.31,949.4Zm-425.3,0a14.11,14.11,0,0,1-7.08-1.91,439.44,439.44,0,0,1,0-761.12,14.18,14.18,0,0,1,14.2,24.54c-126.75,73.33-205.49,209.75-205.49,356s78.74,282.69,205.49,356A14.18,14.18,0,0,1,496,949.4ZM708.66,829.13h-.14a260.47,260.47,0,0,1-185.27-76.79,14.18,14.18,0,0,1,20-20.05,232.89,232.89,0,0,0,151.19,68V333.61a232.89,232.89,0,0,0-151.19,68,14.18,14.18,0,0,1-20-20.05,260.53,260.53,0,0,1,185.34-76.79h.14a262.2,262.2,0,0,1,.08,524.4Zm14.17-495.52V800.25a233.74,233.74,0,0,0,0-466.64Z"/><path class="cls-2" d="M815,1247H602.34a28.35,28.35,0,0,1,0-56.69H815a28.35,28.35,0,0,1,0,56.69Zm0-28.35h0Zm106.29-42.51H496a28.35,28.35,0,1,1,0-56.7H921.29a28.35,28.35,0,0,1,0,56.7Zm0-28.35h0Zm0-42.52H496a28.35,28.35,0,1,1,0-56.69H921.29a28.35,28.35,0,1,1,0,56.69Zm0-28.35h0Zm0-42.52H496a28.35,28.35,0,1,1,0-56.69H921.29a28.35,28.35,0,1,1,0,56.69Zm0-28.34h0Zm0-42.52a28.35,28.35,0,0,1-14.21-52.88c122.38-70.81,198.41-202.54,198.41-343.76S1029.48,294,907.1,223.17a28.35,28.35,0,0,1,28.39-49.07,453.62,453.62,0,0,1,0,785.66A28.38,28.38,0,0,1,921.31,963.57Zm212.48-389.11c-2.5,140.25-74.85,270.91-191.57,347.83a424.86,424.86,0,0,0,191.57-347.83ZM924,200.2c127.38,75,207.18,211.78,209.81,359.2A425,425,0,0,0,924,200.2Zm-.18-.1.17.1Zm-.19-.11.17.1Zm-.19-.11.16.09Zm-.18-.11.15.09Zm-.19-.11.15.09Zm-.18-.11.13.08Zm-.19-.11.13.08Zm-.18-.1.12.07Zm-.19-.11.12.07Zm-.19-.12.12.08Zm-.19-.1.12.07Zm-.19-.11.12.07Zm-.21-.12.14.08Zm-.24-.14.19.11A1.18,1.18,0,0,0,921.29,198.64ZM496,963.57a28.41,28.41,0,0,1-14.18-3.81,453.62,453.62,0,0,1,0-785.66,28.35,28.35,0,1,1,28.39,49.07C387.84,294,311.81,425.71,311.81,566.93s76,273,198.41,343.76A28.35,28.35,0,0,1,496,963.57Zm-2.67-763.36a425.26,425.26,0,0,0,2.69,735h0c-131.13-75.86-212.58-217-212.58-368.29C283.46,416.66,363.8,276.43,493.34,200.21Zm.18-.11-.17.1Zm.18-.11-.15.09Zm.19-.11-.15.09Zm.19-.11-.15.09Zm.19-.11-.14.08Zm.18-.1-.13.07Zm.19-.12-.13.08Zm.18-.1-.12.07Zm.19-.11-.12.07Zm.19-.11-.12.07Zm.19-.11-.12.07Zm.18-.11-.11.07Zm.2-.11-.12.07Zm.26-.15-.19.11ZM708.81,843.31h-.29a274.62,274.62,0,0,1-195.29-80.95,28.35,28.35,0,0,1,40.09-40.09,219.19,219.19,0,0,0,127,62.41V349.18a219.19,219.19,0,0,0-127,62.41,28.35,28.35,0,0,1-40.09-40.09,274.58,274.58,0,0,1,195.36-80.95h.14a276.38,276.38,0,0,1,.08,552.76ZM708.66,815v0Zm186.46-84.45q-5.31,6-11.07,11.8A247.62,247.62,0,0,1,723.69,814.4l-7.48.45a246.32,246.32,0,0,0,167.84-72.53Q889.8,736.56,895.12,730.51ZM533.53,742.57a246.31,246.31,0,0,0,167.58,72.28l-7.47-.45A247.64,247.64,0,0,1,533.53,742.57ZM737,349.18v435.5a219.57,219.57,0,0,0,0-435.5ZM533.41,742.44l.08.09ZM944.65,490.17a250.78,250.78,0,0,1,1.59,148.41,250.78,250.78,0,0,0-1.59-148.41Zm-60.83-98.86.1.11Zm-350.33,0-.08.09ZM716.25,319l7.44.45a247.62,247.62,0,0,1,160.1,71.83A246.3,246.3,0,0,0,716.25,319Zm-15.18,0a246.3,246.3,0,0,0-167.54,72.28,247.64,247.64,0,0,1,160.11-71.83Z"/><rect class="cls-3" width="1417.32" height="1417.32"/></svg>