<svg id="Layer_1" data-name="Layer 1" xmlns="http://www.w3.org/2000/svg" xmlns:xlink="http://www.w3.org/1999/xlink" viewBox="0 0 878.74 1048.4"><defs><style>.cls-1{fill:url(#linear-gradient);}</style><linearGradient id="linear-gradient" x1="708.66" y1="184.46" x2="708.66" y2="1232.86" gradientUnits="userSpaceOnUse"><stop offset="0" stop-color="#812990"/><stop offset="0.17" stop-color="#802f93"/><stop offset="0.39" stop-color="#7c3f9c"/><stop offset="0.65" stop-color="#775aab"/><stop offset="0.92" stop-color="#6f80c0"/><stop offset="1" stop-color="#6c8cc7"/></linearGradient></defs><path class="cls-1" d="M815,1232.86H602.34a14.18,14.18,0,0,1,0-28.35H815a14.18,14.18,0,0,1,0,28.35ZM921.29,1162H496a14.17,14.17,0,1,1,0-28.34H921.29a14.17,14.17,0,1,1,0,28.34Zm0-70.86H496a14.18,14.18,0,1,1,0-28.35H921.29a14.18,14.18,0,1,1,0,28.35Zm0-70.87H496a14.17,14.17,0,1,1,0-28.34H921.29a14.17,14.17,0,1,1,0,28.34Zm0-70.86A14.17,14.17,0,0,1,914.2,923c126.75-73.34,205.49-209.76,205.49-356S1041,284.24,914.2,210.91a14.17,14.17,0,0,1,14.19-24.54,439.44,439.44,0,0,1,0,761.12A14.11,14.11,0,0,1,921.31,949.4Zm-425.3,0a14.11,14.11,0,0,1-7.08-1.91,439.44,439.44,0,0,1,0-761.12,14.18,14.18,0,0,1,14.2,24.54c-126.75,73.33-205.49,209.75-205.49,356s78.74,282.69,205.49,356A14.18,14.18,0,0,1,496,949.4ZM708.66,829.13h-.14a260.47,260.47,0,0,1-185.27-76.79,14.18,14.18,0,0,1,20-20.05,232.89,232.89,0,0,0,151.19,68V333.61a232.89,232.89,0,0,0-151.19,68,14.18,14.18,0,0,1-20-20.05,260.53,260.53,0,0,1,185.34-76.79h.14a262.2,262.2,0,0,1,.08,524.4Zm14.17-495.52V800.25a233.74,233.74,0,0,0,0-466.64Z" transform="translate(-269.29 -184.46)"/></svg>